<svg width="800" height="800" viewBox="0 0 24 24" fill="none" xmlns="http://www.w3.org/2000/svg">
  <path d="m13.18 7.14.286-.286c.144-.144.295-.279.45-.404.82-.085 1.566.053 2.654.419M10.39 9.93l.286-.285c.144-.144.294-.28.45-.404.82-.086 1.566.053 2.654.418m-6.181 3.062.286-.286a5.61 5.61 0 0 1 .45-.404c.82-.086 1.567.053 2.654.419m-6.18 3.062.286-.287a5.6 5.6 0 0 1 .45-.403c.82-.086 1.566.053 2.654.418M20.046 3.782a2.5 2.5 0 0 1 0 3.536L7.318 20.046a2.5 2.5 0 1 1-3.536-3.536L16.51 3.782a2.5 2.5 0 0 1 3.536 0Z" stroke="#000" stroke-width="1.001" stroke-linejoin="round"/>
</svg>
