<svg xmlns="http://www.w3.org/2000/svg" width="400" height="358.621">
  <path d="M144.016 11.632C75.354 15.398 20.795 68.088 14.987 136.24c-.834 9.79-.324 24.112 1.02 28.65 10.485 35.398 49.375 64.348 98.672 73.453 3.019.558 5.624 1.097 5.788 1.198.164.102.413 2.713.553 5.802 1.324 29.091 34.983 62.219 77.156 75.94 92.629 30.135 196.806-18.446 194.397-90.654-1.717-51.453-34.281-98.874-81.843-119.182-9.082-3.878-23.194-8.202-29.496-9.038-2.525-.335-2.386-.167-4.344-5.249-20.422-53.013-75.801-88.659-132.874-85.528m20.893 10.665c37.264 4.42 70.478 24.967 91.175 56.405 3.118 4.736 10.387 18.504 11.031 20.892.214.796.017.812-10.02.826-17.696.024-30.697 2.224-46.538 7.875l-4.489 1.601-1.079-1.702c-11.758-18.551-22.514-29.33-38.979-39.063-2.518-1.489-4.526-2.753-4.462-2.81.27-.242 6.521-1.809 10.355-2.596 10.631-2.182 24.762-2.809 37.712-1.672 6.866.603 7.927.369 8.49-1.872 1.01-4.024-2.072-4.894-18.72-5.287-16.577-.391-29.465 1.467-43.617 6.29l-3.46 1.179-3.03-1.171c-12.211-4.722-25.883-7.007-41.773-6.982-20.121.032-24.607 1.163-22.47 5.666.875 1.843 1.651 1.984 8.011 1.448 18.684-1.574 33.405-.339 47.662 3.998l2.979.906-3.791 2c-23.772 12.541-42.633 35.366-51.899 62.806-2.138 6.332-2.036 7.907.576 8.899 2.503.952 3.487-.142 5.501-6.116 9.348-27.736 27.702-49.349 52.153-61.415 6.405-3.161 5.708-3.136 11.171-.396 12.82 6.429 24.938 16.433 34.006 28.074 3.086 3.962 8.451 12.182 8.137 12.469-.082.076-2.158 1.181-4.612 2.455-42.437 22.038-70.114 63.508-73.851 110.655-.33 4.159.298 3.923-6.63 2.497-49.629-10.214-87.927-41.867-89.711-74.146-3.784-68.481 48.22-127.044 117.454-132.267 3.568-.269 18.938.106 22.718.554m108.519 89.026c58.467 8.449 102.686 54.088 108.714 112.206 3.42 32.969-14.647 61.131-51.128 79.699-73.091 37.202-177.543 10.642-198.56-50.49l-1.604-4.665.009-10.953c.057-66.429 48.607-120.029 114.468-126.373 5.303-.511 23.107-.146 28.101.576m-75.488 32.054c-6.582.752-8.276 2.091-6.735 5.323.859 1.801 1.699 1.971 7.031 1.424 17.504-1.796 39.213.115 50.231 4.422l1.205.472-3.668 1.937c-23.832 12.588-43.339 36.502-52.243 64.044-1.507 4.663-1.519 5.338-.121 6.891 2.247 2.496 4.582.794 6.369-4.643 9.426-28.671 28.371-50.624 54.382-63.018l4.093-1.95 2.528 1.134c24.319 10.911 44.33 33.977 53.841 62.058 2.256 6.663 4.457 8.316 7.018 5.273 1.337-1.589 1.364-1.303-.724-7.491-9.122-27.031-27.631-49.825-50.751-62.501l-2.83-1.551 3.033-.928c12.945-3.958 29.046-4.982 48.747-3.101 6.848.654 7.151-5.804.318-6.774-16.103-2.286-39.367-.289-55.204 4.738l-5.925 1.88-4.143-1.473c-6.982-2.483-13.926-4.212-23.155-5.765-5.308-.893-26.733-1.152-33.297-.401" fill-rule="evenodd"/>
</svg>
