<svg version="1.0" xmlns="http://www.w3.org/2000/svg" width="1482.7" height="1706.7" viewBox="0 0 1112 1280">
  <path d="M553 1c-4 1-6 6-25 43l-20 40-44 6-47 8c-3 3-5 8-5 12 1 3 6 9 33 35l32 31-7 43-7 46c0 6 8 12 14 10l41-21 39-20 39 20 41 21c6 2 14-4 14-11l-7-45-8-42 33-32 33-32v-5c0-6-3-9-8-11a919 919 0 0 0-85-13c-3 0-5-3-23-39L565 3c-3-2-9-4-12-2zm-23 310c-36 19-38 19-55 19-13 0-14 0-22-3l-9-3-53 75-56 81c-3 7-3 8-3 17 0 7 0 11 2 15 6 15 19 25 35 27l6 1a18449 18449 0 0 1-66 94l43-7a562 562 0 0 0 318-183c19-23 43-56 43-59l-22-31-21-30-6 3c-14 5-32 5-45 1a521 521 0 0 1-62-31l-28 14z"/>
  <path d="M737 449a585 585 0 0 1-206 173 683 683 0 0 1-265 72c-4 4-90 126-91 130a42 42 0 0 0 18 52c8 5 11 5 31 6h20l-71 101-72 100 5 1a774 774 0 0 0 576-281c40-49 83-114 111-171l5-10-30-41-29-42h3l8-1c25-5 40-34 30-57l-31-44c-2-2-2-2-12 12zm95 229-9 16a898 898 0 0 1-222 264 992 992 0 0 0 315 193c56 21 113 35 172 42l3 1-4-6-110-156-107-150h20c17-1 20-1 25-3 12-4 21-14 25-26 3-9 2-22-1-30l-54-77-51-72-2 4zM545 997a859 859 0 0 1-462 142H61l-27 40-31 44c-5 11-4 26 2 36s17 18 27 20l528 1 523-1 5-2c10-4 19-13 22-21l2-4h-4l-25-3c-82-8-171-34-261-76a1140 1140 0 0 1-268-181l-9 5z"/>
</svg>
