<svg height="800" width="800" xmlns="http://www.w3.org/2000/svg" viewBox="0 0 511.999 511.999" xml:space="preserve">
  <path d="m477.572 249.562 12.458-12.687-5.725-10.249c-1.646-2.947-39.161-68.712-113.196-87.894l-4.151-4.538c-14.046-15.352-37.257-26.294-68.988-32.521-22.471-4.41-41.164-4.8-41.949-4.814l-.288-.006-.288.006c-.785.015-19.477.404-41.949 4.814-31.731 6.226-54.942 17.168-68.987 32.521l-4.156 4.543c-74.021 19.189-111.531 84.942-113.176 87.889l-5.725 10.249L34.439 250.1C20.442 272.207-6.704 323.641 1.522 379.578c3.237 22.011 14.091 30.416 22.626 33.59 3.639 1.354 7.424 1.978 11.323 1.978 25.091-.001 54.953-25.806 81.722-48.942 5.365-4.637 11.938-10.316 17.107-14.416l11.999 12.219 42.192-25.614 1.418 5.653h131.648l1.42-5.661 42.206 25.621 12.533-12.763c5.166 4.1 11.729 9.772 17.089 14.404 26.772 23.136 56.629 48.94 81.721 48.94 3.898 0 7.685-.624 11.323-1.977 8.535-3.174 19.389-11.578 22.626-33.591 8.227-55.921-18.902-107.34-32.903-129.457zM96.697 342.487c-12.203 10.546-26.034 22.498-38.797 31.047-15.352 10.283-21.442 10.39-22.638 10.273-.448-.589-1.853-2.841-2.727-8.791-6.024-40.959 12.381-80.747 24.595-101.779l55.08 56.089c-4.402 3.584-9.477 7.945-15.513 13.161zm54.566-18.164-90.385-92.039c11.96-16.664 40.727-50.271 85.274-62.652l34.357 136.936-29.246 17.755zM297.106 312.7h-82.725l-40.816-162.675c22.213-16.736 65.566-21.44 82.182-21.818 16.602.352 59.921 5.008 82.172 21.822l-5.4 21.524L297.106 312.7zm65.143 9.557-2.028 2.066-29.258-17.763 7.739-30.847 26.614-106.077c44.301 12.36 73.212 46.005 85.257 62.68l-88.324 89.941zm117.216 52.201c-.875 5.951-2.279 8.202-2.727 8.791-1.194.121-7.283.011-22.637-10.272-12.763-8.549-26.594-20.501-38.796-31.047-6.036-5.217-11.111-9.578-15.514-13.162l55.113-56.121c12.22 20.954 30.616 60.637 24.561 101.811z"/>
</svg>
