<svg xmlns="http://www.w3.org/2000/svg" viewBox="0 0 100 90" style="enable-background:new 0 0 100 100" xml:space="preserve">
  <path d="M87.694 46.747c.055-.382.112-.763.153-1.152.021-.2.002-.402-.057-.595-1.755-5.761-6.246-8.735-8.766-9.995-2.34-1.17-4.834-1.808-6.644-1.767-1.391-2.696-6.216-8.677-21.66-8.677-15.153 0-20.26 4.936-21.827 7.267-1.777-.112-4.266.45-6.715 1.577-2.654 1.22-7.401 4.131-9.374 9.919a1.49 1.49 0 0 0-.076.593c.028.391.073.774.116 1.157-1.142 1.503-6.504 9.096-5.837 18.364.431 5.984 1.84 9.3 4.308 10.138.334.113.722.19 1.159.19 1.239 0 2.876-.62 4.805-2.79 2.719-3.058 6.558-5.544 8.154-6.511.081.049.156.102.238.151.233.14.5.214.771.214l.066-.001c5.597-.248 10.401-3.011 12.495-4.409.061.055.123.111.192.156 2.701 1.718 6.89 2.482 11.012 2.482 4.008 0 7.946-.725 10.391-1.996 1.939 1.376 6.962 4.533 12.794 4.983a1.503 1.503 0 0 0 .845-.185c.083-.046.16-.096.242-.143 1.562 1.017 5.312 3.62 7.936 6.774 1.918 2.305 3.578 2.947 4.832 2.947.389 0 .738-.062 1.044-.155 2.494-.757 4.01-4.025 4.636-9.992.971-9.241-4.141-17.006-5.233-18.544zm-2.864-1.16a25.13 25.13 0 0 1-1.107 5.051c-1.174 3.128-2.698 5.521-4.201 7.31-1.709 1.925-3.817 3.61-6.345 5.064-4.354-.462-8.268-2.687-10.227-3.981 6.205-7.4 8.563-15.348 9.454-20.018.197-.972.347-1.905.439-2.778 1.042.067 2.813.438 4.84 1.452 2.047 1.024 5.657 3.398 7.147 7.9zM15.038 68.983c-1.354 1.522-2.31 1.902-2.758 1.752-.182-.062-1.796-.799-2.28-7.513-.412-5.717 1.888-10.861 3.613-13.843.091.292.191.57.288.851.027.087.059.172.087.258.032.091.063.186.096.276a23.88 23.88 0 0 0 3.714 6.974c1.721 2.336 3.5 3.936 4.835 4.939-2.038 1.324-5.172 3.579-7.595 6.306zm11.785-7.178c-2.476-1.534-4.525-3.284-6.169-5.26-1.448-1.841-2.897-4.29-3.971-7.466a25.203 25.203 0 0 1-.937-5.07c1.669-4.54 5.515-6.879 7.687-7.878 2.02-.929 3.743-1.262 4.771-1.317.24 5.965 2.762 16.992 8.647 23.424-1.958 1.236-5.749 3.254-10.028 3.567zm14.124-3.674c-8.484-8.743-9.61-22.066-9.742-24.348.615-1.1 4.302-6.222 19.516-6.222 15.5 0 18.75 6.375 19.203 7.502-.006.098-.016.2-.024.3-.071.769-.266 2.331-.742 4.41-1.497 6.11-4.989 13.619-9.445 18.327-3.153 2.21-13.863 3.005-18.766.031zm48.998 6.847c-.703 6.695-2.34 7.379-2.524 7.435-.449.136-1.395-.274-2.699-1.841-2.333-2.805-5.391-5.161-7.386-6.551 1.368-.959 3.2-2.503 4.999-4.784a23.869 23.869 0 0 0 3.936-6.844c.038-.095.074-.195.112-.291.028-.078.06-.154.087-.233.107-.281.217-.559.319-.85 1.627 3.027 3.756 8.235 3.156 13.959z"/>
</svg>
