<svg xmlns="http://www.w3.org/2000/svg" viewBox="0 0 100 100" style="enable-background:new 0 0 100 100" xml:space="preserve">
  <path d="M72.905 10.246c-5.184.816-10.3 3.525-14.406 7.63-4.053 4.053-6.303 8.682-6.508 13.386-.194 4.447 1.502 8.699 4.776 11.971 3.104 3.105 7.088 4.791 11.286 4.791.228 0 .457-.004.685-.015 4.704-.205 9.333-2.455 13.386-6.508 4.105-4.105 6.814-9.222 7.63-14.406.84-5.342-.45-10.036-3.632-13.217-3.182-3.183-7.875-4.468-13.217-3.632zm-4.965 4.778c-.125.91-.294 2.159.88 3.333 1.14 1.14 2.45 1.002 3.403.904.888-.092 1.337-.117 1.782.328.444.444.42.891.327 1.78-.1.955-.237 2.264.901 3.402 1.14 1.14 2.448 1.002 3.403.903.888-.094 1.336-.118 1.781.327.444.444.42.892.327 1.78-.1.955-.237 2.263.902 3.402 1.174 1.175 2.42 1.004 3.333.878.527-.071.893-.1 1.231-.002-.933 2.14-2.217 4.204-3.762 6.086L61.855 17.552c1.883-1.545 3.947-2.83 6.087-3.763.099.34.07.706-.002 1.235zm.711 30.987c-3.903.166-7.6-1.32-10.47-4.192-2.872-2.872-4.362-6.59-4.192-10.47.074-1.698.469-3.39 1.139-5.049.922.358 1.791.239 2.475.145.9-.122 1.319-.156 1.829.355.5.5.47 1.02.372 1.97-.107 1.01-.251 2.394.946 3.591 1.198 1.198 2.582 1.054 3.593.948.953-.099 1.47-.126 1.97.373.5.5.471 1.02.373 1.97-.106 1.01-.25 2.395.947 3.592 1.198 1.198 2.583 1.054 3.592.948.953-.1 1.47-.128 1.971.373.512.512.48.932.357 1.831-.093.682-.212 1.553.146 2.476-1.659.67-3.35 1.065-5.048 1.139zM75.53 44c-.103-.368-.073-.766.004-1.333.132-.963.312-2.282-.924-3.517-1.196-1.198-2.579-1.054-3.592-.948-.953.1-1.472.126-1.971-.373-.5-.5-.472-1.02-.372-1.97.105-1.011.249-2.395-.947-3.592-1.198-1.198-2.58-1.052-3.593-.948-.953.099-1.472.126-1.97-.373-.5-.5-.472-1.018-.373-1.97.106-1.01.251-2.394-.946-3.591-1.236-1.235-2.554-1.052-3.515-.922-.568.078-.965.108-1.333.007.973-1.794 2.271-3.536 3.915-5.181.142-.142.297-.27.442-.41L81.12 39.645c-.14.145-.268.3-.41.442-1.645 1.644-3.387 2.942-5.18 3.915zm12.248-17.217a20.778 20.778 0 0 1-.848 3.4c-.831-.287-1.61-.188-2.224-.105-.835.116-1.193.143-1.646-.31-.445-.445-.42-.892-.328-1.78.101-.956.238-2.263-.9-3.402s-2.448-1.002-3.404-.902c-.887.091-1.334.118-1.78-.328-.445-.445-.42-.891-.328-1.78.1-.956.238-2.264-.901-3.402-1.14-1.14-2.447-1.001-3.403-.904-.891.094-1.337.117-1.782-.328-.455-.455-.426-.812-.312-1.648.084-.616.183-1.394-.105-2.225 1.13-.381 2.269-.67 3.399-.848 4.695-.737 8.774.352 11.492 3.07 2.718 2.717 3.808 6.799 3.07 11.492zM31.262 51.991c-4.704.205-9.333 2.455-13.386 6.508-4.105 4.105-6.814 9.222-7.63 14.406-.84 5.342.45 10.036 3.632 13.217 2.547 2.548 6.063 3.882 10.105 3.882a20.1 20.1 0 0 0 3.112-.25c5.184-.816 10.3-3.525 14.406-7.63 4.053-4.053 6.303-8.682 6.508-13.386.194-4.447-1.502-8.699-4.776-11.971-3.273-3.274-7.55-4.989-11.971-4.776zm.796 34.22c-.099-.34-.07-.706.002-1.235.125-.91.294-2.159-.88-3.333-1.14-1.14-2.449-1.003-3.403-.904-.89.092-1.337.117-1.782-.328-.444-.444-.42-.891-.327-1.78.1-.955.237-2.264-.901-3.402s-2.447-1-3.403-.903c-.886.095-1.335.12-1.781-.327-.444-.444-.42-.892-.327-1.78.1-.955.237-2.263-.902-3.402-1.173-1.174-2.42-1.003-3.333-.878-.527.071-.893.1-1.231.002.933-2.14 2.217-4.204 3.762-6.086l20.593 20.593c-1.883 1.545-3.947 2.83-6.087 3.763zm-5.274 1.567c-4.694.738-8.774-.352-11.492-3.07-2.718-2.717-3.808-6.799-3.07-11.492.177-1.13.467-2.269.848-3.4.83.287 1.61.188 2.224.105.836-.115 1.193-.143 1.646.31.445.445.42.892.328 1.78-.101.956-.238 2.263.9 3.402s2.447 1.001 3.404.902c.889-.09 1.334-.116 1.78.328.445.445.42.891.328 1.78-.1.956-.238 2.264.901 3.402 1.14 1.14 2.448 1.004 3.403.904.89-.096 1.336-.118 1.782.328.455.455.426.812.312 1.648-.084.616-.183 1.394.105 2.225a20.77 20.77 0 0 1-3.399.848zm13.303-7.068c-.142.142-.297.27-.442.41L18.88 60.355c.14-.145.268-.3.41-.442 1.645-1.644 3.387-2.942 5.18-3.915.103.369.073.767-.004 1.334-.132.963-.312 2.282.924 3.517 1.195 1.197 2.582 1.053 3.592.948.95-.099 1.47-.127 1.972.373.5.5.47 1.02.372 1.97-.106 1.01-.25 2.395.946 3.592s2.582 1.054 3.593.948c.953-.099 1.47-.126 1.97.373.5.5.472 1.018.373 1.97-.106 1.01-.251 2.394.946 3.591 1.236 1.236 2.556 1.054 3.515.922.567-.078.964-.108 1.333-.006-.973 1.793-2.271 3.535-3.915 5.18zm4.785-7.01c-.924-.359-1.794-.24-2.475-.145-.899.123-1.318.156-1.829-.355-.5-.5-.47-1.02-.372-1.97.107-1.01.251-2.394-.946-3.591s-2.581-1.052-3.593-.948c-.953.099-1.471.126-1.97-.373-.5-.5-.471-1.02-.373-1.97.107-1.01.251-2.395-.946-3.592-1.198-1.196-2.584-1.054-3.593-.948-.953.1-1.47.128-1.971-.373-.512-.512-.48-.932-.357-1.831.093-.682.212-1.553-.146-2.476 1.659-.67 3.35-1.065 5.048-1.139.199-.009.397-.013.594-.013 3.664 0 7.152 1.48 9.876 4.205 2.872 2.872 4.362 6.59 4.192 10.47-.074 1.698-.469 3.39-1.139 5.049zM32.033 48.007c4.083 0 8.008-1.577 11.2-4.77 6.955-6.955 6.244-17.383-1.732-25.357-8.719-8.718-21.11-10.514-27.623-4-6.514 6.515-4.72 18.906 3.998 27.624 4.314 4.314 9.346 6.503 14.157 6.503zM15.292 15.295c5.637-5.635 16.991-3.805 24.795 3.999 7.256 7.256 7.952 16.31 1.732 22.53S26.548 47.345 19.29 40.09c-7.803-7.804-9.634-19.16-3.998-24.795z"/>
  <path d="M21.858 36.893c2.176 1.33 4.884 1.74 7.4 1.74 3.931 0 7.394-1.002 7.629-1.071.324-.097.578-.351.675-.675.113-.384 2.74-9.452-.67-15.029-2.05-3.353-5.612-3.83-8.054-2.852-2.107.843-3.956 2.967-3.853 5.98-2.994-.104-5.136 1.744-5.98 3.852-.976 2.442-.5 6.005 2.853 8.055zm-.995-7.312c.514-1.284 1.81-2.6 3.887-2.6.367 0 .759.041 1.174.131a.999.999 0 0 0 1.188-1.188c-.596-2.769.957-4.456 2.47-5.06 1.742-.698 4.151-.339 5.604 2.037 2.517 4.116 1.084 10.936.6 12.884-1.95.487-8.76 1.924-12.885-.6-2.376-1.452-2.735-3.86-2.038-5.604zm35.717 27c-3.293 3.291-4.999 7.567-4.804 12.04.206 4.73 2.47 9.385 6.546 13.461 5.211 5.211 11.727 7.962 17.53 7.962 3.962 0 7.593-1.282 10.25-3.94 6.55-6.55 4.747-19.012-4.022-27.78-8.02-8.02-18.508-8.738-25.5-1.743zm27.455 7.296a3.824 3.824 0 0 1-.464.578c-1.472 1.472-3.87 1.473-5.342 0s-1.473-3.87 0-5.343a3.74 3.74 0 0 1 1.006-.695c.484.415.962.852 1.431 1.321a26.82 26.82 0 0 1 3.37 4.139zM58.412 79.242a3.78 3.78 0 0 1 .698-1.012c1.428-1.427 3.915-1.427 5.343 0a3.783 3.783 0 0 1 .001 5.342 3.817 3.817 0 0 1-.58.465 26.825 26.825 0 0 1-4.138-3.369 25.982 25.982 0 0 1-1.324-1.426zm26.276 5.448c-4.352 4.352-12.087 4.266-19.001.45.058-.053.124-.096.18-.153a5.786 5.786 0 0 0 0-8.17 5.739 5.739 0 0 0-4.086-1.693c-1.543 0-2.994.6-4.085 1.692-.225.226-.422.47-.605.725-2.04-2.872-3.182-5.932-3.317-9.008-.17-3.905 1.329-7.647 4.22-10.538 2.847-2.848 6.285-4.255 9.875-4.255 3.208 0 6.537 1.127 9.674 3.35a5.774 5.774 0 0 0-.729.608 5.784 5.784 0 0 0 0 8.171c1.126 1.126 2.606 1.69 4.085 1.69s2.96-.564 4.087-1.69c.056-.057.1-.122.153-.18 3.814 6.914 3.901 14.65-.45 19.001z"/>
  <path d="M67.255 67.257a5.786 5.786 0 0 0 0 8.17 5.739 5.739 0 0 0 4.086 1.693c1.543 0 2.994-.6 4.085-1.692a5.736 5.736 0 0 0 1.692-4.085c0-1.544-.6-2.994-1.692-4.086a5.786 5.786 0 0 0-8.171 0zm6.757 6.757c-1.428 1.427-3.915 1.427-5.343 0a3.783 3.783 0 0 1 0-5.343 3.767 3.767 0 0 1 2.672-1.105c.967 0 1.934.369 2.67 1.105.715.714 1.107 1.663 1.107 2.672s-.392 1.957-1.106 2.67z"/>
</svg>
