<!DOCTYPE svg PUBLIC "-//W3C//DTD SVG 1.1//EN" "http://www.w3.org/Graphics/SVG/1.1/DTD/svg11.dtd">
<svg xmlns="http://www.w3.org/2000/svg" fill="#fff" width="2000" height="424" style="shape-rendering:geometricPrecision;text-rendering:geometricPrecision;image-rendering:optimizeQuality;fill-rule:evenodd;clip-rule:evenodd">
  <path d="M28.5-.5h306v315h-20v58h-84v51h-4a483.7 483.7 0 0 0-36-22 483.7 483.7 0 0 0-36 22h-4v-51c-40 .5-80 0-120-1.5A41.6 41.6 0 0 1 1 336.5c-.7-101-.7-202 0-303 2.8-16.6 12-28 27.5-34Zm43 22h240v270h-240v-270Zm-33 293h253v35h-61v-16h-80v16c-38.4.5-76.7 0-115-1.5-14.4-9-15.4-19.4-3-31a23 23 0 0 0 6-2.5Z"/>
  <path d="M829.5 57.5h6c-.3 55 0 110 1 165 21.8-24.3 43.8-48.5 66-72.5-7-.5-14-.7-21-.5v-15h69v15c-8-.3-16 0-24 1a2951 2951 0 0 0-45 46.5c18.7 28.6 37.5 57 56.5 85.5 6 1 12.2 1.3 18.5 1v15h-68v-15c6.3.2 12.7 0 19-.5-14.7-22.6-29.5-45-44.5-67.5-8.6 9.6-17.6 19-27 28-.5 13.3-.7 26.7-.5 40h24v15h-74v-15h23c.3-67 0-134-1-201-7.3-1.8-14.6-3.1-22-4-.3-4.3 0-8.4 1-12.5 14.6-2.4 28.9-5.3 43-8.5Z"/>
  <path d="M136.5 76.5c11.4-1 21.6 2 30.5 9 16.5-12 33-12 49.5 0 19.5-13.2 37.7-11.5 54.5 5 12.7 19.6 10.9 37.8-5.5 54.5a47 47 0 0 1-8 4.5c-1 20-1.3 40-1 60h-129c.2-19.7 0-39.3-.5-59-20.6-11.4-27.3-28.4-20-51 6.2-12.4 16-20 29.5-23Z"/>
  <path d="M406.5 76.5c38.3-.2 76.7 0 115 .5 39.3 5.7 55.8 28.2 49.5 67.5a51.5 51.5 0 0 1-38.5 38.5c30.2 4.9 46.5 22.5 49 53 .2 21-7.5 38.3-23 52a62 62 0 0 1-26 10c-42 .5-84 .7-126 .5v-15h24v-191h-24v-16Zm52 17c19.3-.2 38.7 0 58 .5a30.4 30.4 0 0 1 24.5 22.5c2.2 13 1.9 26-1 39a31 31 0 0 1-23.5 19.5c-19.3.5-38.7.7-58 .5v-82Zm0 99c20.7-.2 41.3 0 62 .5 16 3 25.9 12.5 29.5 28.5a244 244 0 0 1 0 32 33.9 33.9 0 0 1-32.5 28.5c-19.7.5-39.3.7-59 .5v-90Zm757-116c38.3-.2 76.7 0 115 .5 39 5.4 55.5 27.6 49.5 66.5a50.8 50.8 0 0 1-38.5 39.5c30.4 5 46.8 22.8 49 53.5a65 65 0 0 1-22 50.5c-8 6-17 9.7-27 11-42 .5-84 .7-126 .5v-15h24v-191h-24v-16Zm52 17c19.3-.2 38.7 0 58 .5a31 31 0 0 1 23.5 19.5c3.3 14 3.3 28 0 42a31 31 0 0 1-23.5 19.5c-19.3.5-38.7.7-58 .5v-82Zm0 99c20.7-.2 41.3 0 62 .5 16 3 25.9 12.5 29.5 28.5a255 255 0 0 1 0 32c-4 17.3-14.8 26.8-32.5 28.5-19.7.5-39.3.7-59 .5v-90Z"/>
  <path d="M1624.5 91.5h15v43h42v16h-42v132h42c.3 4 0 7.8-1 11.5a100 100 0 0 1-53 5c-9-3.3-13.8-9.8-14.5-19.5-.5-43-.7-86-.5-129h-21v-16c7.8.7 15-1 21.5-5 4.5-12.5 8.4-25.1 11.5-38Z"/>
  <path d="M674.5 130.5c13.8-1.1 27.1.7 40 5.5a44.4 44.4 0 0 1 25.5 37.5c.5 37 .7 74 .5 111h24c.3 4.3 0 8.4-1 12.5-11.6 6-23.6 7-36 3a26.3 26.3 0 0 1-12.5-25.5 44.6 44.6 0 0 1-38.5 27.5c-14.5 2-28.1-.2-41-7a45.2 45.2 0 0 1-17.5-47.5 39.8 39.8 0 0 1 28.5-32.5 105 105 0 0 1 17-4 468 468 0 0 1 50-1.5c.4-12.7-.1-25.4-1.5-38-5.4-18.1-17.5-26.4-36.5-25-8.5-.6-16.5 1-24 5a20 20 0 0 1 8.5 23 15 15 0 0 1-7.5 9.5c-21 5-29.9-3.2-26.5-24.5a44.3 44.3 0 0 1 25.5-23.5 126 126 0 0 1 23-5.5Zm11 92h28c.2 12.3 0 24.7-.5 37a27.7 27.7 0 0 1-18.5 21.5 45.5 45.5 0 0 1-35 0 21 21 0 0 1-12.5-15.5 57 57 0 0 1 3-28c4-5.7 9.6-9.6 16.5-11.5a162 162 0 0 1 19-3.5Z"/>
  <path d="M1033.5 130.5c43.1-1.7 68.6 18.6 76.5 61a190 190 0 0 1 1.5 25h-113a81 81 0 0 0 9.5 44 45.4 45.4 0 0 0 40.5 21c17.4.2 31.6-6.5 42.5-20 1.7-3.4 3.9-6.4 6.5-9l11 6.5c-14.8 32.4-40.1 46.7-76 43-37-7.3-57.8-29.8-62.5-67.5-3.8-26 .8-50.4 14-73 12-17.6 28.5-28 49.5-31Zm1 16c27.5-2 43.4 10.7 47.5 38 .5 5.3.7 10.7.5 16h-84c-.5-14.7 3.3-28 11.5-40a48 48 0 0 1 24.5-14Zm734-16c47.2-1.1 73 21.9 77.5 69 .5 5.7.7 11.3.5 17h-113a86.5 86.5 0 0 0 8.5 42 49.3 49.3 0 0 0 55.5 21.5 52.3 52.3 0 0 0 24.5-13.5c3.3-4.8 6.8-9.5 10.5-14 4 2 7.6 4.3 11 7-14.8 31.7-39.8 46-75 42.5a68.7 68.7 0 0 1-60.5-53.5 157.8 157.8 0 0 1-3-47 86.9 86.9 0 0 1 34.5-60.5c9.1-5.4 18.8-9 29-10.5Zm1 16c24.4-2.1 39.9 8.6 46.5 32 1.2 7.3 2 14.6 2.5 22h-85a68.8 68.8 0 0 1 9.5-37c6.7-9 15.5-14.8 26.5-17Zm156-16a62.8 62.8 0 0 1 42 9.5l5.5 7.5c.5-4.3.7-8.7.5-13h20v50h-20c1-10-.8-19.3-5.5-28a30.3 30.3 0 0 0-17.5-8.5c-8-.7-16-.7-24 0-21.5 6.1-27.3 19.3-17.5 39.5 4 4.6 8.9 8.1 14.5 10.5a877 877 0 0 1 45 12c25.8 12.3 34.8 32.3 27 60a50.5 50.5 0 0 1-45 32c-16 2.5-30.8-.8-44-10a26 26 0 0 1-7.5-9.5c-.5 5.3-.7 10.7-.5 16h-20v-50h20c-1.3 25.5 10.8 38.2 36.5 38 8.8-.3 17.3-2.1 25.5-5.5 10.8-7.5 14.3-17.7 10.5-30.5-3.3-8-9-13.6-17.5-16.5-10.9-3-21.9-5.7-33-8-30.8-7.5-44.3-27-40.5-58.5 3-16 12.2-26.8 27.5-32.5 6-2 12-3.5 18-4.5Z"/>
  <path d="M1409.5 134.5h69v15a265 265 0 0 0-23 .5 23598 23598 0 0 0 44 117.5c14.6-39 29-78.2 43-117.5a265 265 0 0 0-23-.5v-15h59v15c-6.1-.6-12 0-17.5 2l-67 175a72.7 72.7 0 0 1-27.5 35.5 62.1 62.1 0 0 1-34 2 24 24 0 0 1-16-23c2.1-16.6 11.1-22.2 27-17 6.6 5.8 8.4 13 5.5 21.5a18 18 0 0 1-6.5 6.5c12.2 2 21.7-2.2 28.5-12.5a143 143 0 0 0 14.5-34.5 7749.6 7749.6 0 0 0-60-155c-5.3-.5-10.7-.7-16-.5v-15Z"/>
  <path d="M127.5 227.5h129v20h-129v-20Z"/>
</svg>
