<svg xmlns="http://www.w3.org/2000/svg" viewBox="0 0 122.9 114.1" style="enable-background:new 0 0 122.88 114.13" xml:space="preserve">
  <path d="M23 29V1l1-1h58l2 1 13 13 1 1h-1 1v14l-1 1h-5l-1-1v-6H76V7H30v22l-1 1h-5l-1-1zm8 39h61a7 7 0 0 1 5 2 7 7 0 0 1 1 4v10h14a5 5 0 0 
    0 3-2 5 5 0 0 0 1-3V43a5 5 0 0 0-1-3 5 5 0 0 0-3-1H11a5 5 0 0 0-3 1 5 5 0 0 0-1 3v36a5 5 0 0 0 1 3l2 1 1 1h13V74a7 7 0 0 1 4-6h3zm67 
    22v18a7 7 0 0 1-1 4 7 7 0 0 1-5 2H31a7 7 0 0 1-5-2 6 6 0 0 1-2-4V90H11a11 11 0 0 1-8-3 11 11 0 0 1-3-8V43a11 11 0 0 1 3-7 11 11 0 0 
    1 8-4h101a11 11 0 0 1 8 4 11 11 0 0 1 3 8v35a11 11 0 0 1-3 8 11 11 0 0 1-8 3H98zm-9-74-7-7v7h7zm3 59H31v32h61V75z"/>
</svg>
