<svg xmlns="http://www.w3.org/2000/svg" data-name="Layer 1" viewBox="0 0 100 125">
  <path d="M50 9a41 41 0 1 0 41 41A41 41 0 0 0 50 9Zm0 80a39 39 0 1 1 39-39 39 39 0 0 1-39 39ZM36 34a3 3 0 0 0-2 2 4 4 0 0 0 3 4 4 4 0 0 0 1 0 3 3 0 0 0 2 0 3 3 0 0 0 1-2 4 4 0 0 0-3-4 3 3 0 0 0-2 0Zm3 4a1 1 0 0 1-2 0 2 2 0 0 1-1-2 1 1 0 0 1 1 0 2 2 0 0 1 1 0 2 2 0 0 1 1 2Zm8 12a4 4 0 0 0 2 0 4 4 0 0 0 1 0 3 3 0 0 0 2-2 4 4 0 0 0-3-5 4 4 0 0 0-3 0 3 3 0 0 0-1 2 4 4 0 0 0 2 5Zm-1-4a1 1 0 0 1 1-1 2 2 0 0 1 1 0 2 2 0 0 1 2 2 1 1 0 0 1-1 1 2 2 0 0 1-1 0 2 2 0 0 1-2-2Zm0-6a3 3 0 0 0 1-1 2 2 0 0 0 1-1 3 3 0 0 0-2-4 3 3 0 0 0-2 0 2 2 0 0 0-1 1 3 3 0 0 0 2 4 3 3 0 0 0 1 0Zm-2-4h1a1 1 0 0 1 1 0 1 1 0 0 1 0 1 1 1 0 0 1-1 0 1 1 0 0 1-1-1ZM22 55c-1-5 0-12 2-13l23 12a19 19 0 0 1 1-1l-14-7a3 3 0 0 0 1-1 4 4 0 0 0-3-5 4 4 0 0 0-5 1l-1-1h-1l13-11a1 1 0 0 1 1 0l10 5 1 1a4 4 0 0 0 2 3 4 4 0 0 0 2 1 4 4 0 0 0 1-1 11 11 0 0 0 1-2 1 1 0 0 0-1 0 2 2 0 0 1-2 0c-1 0-2-1-1-2a1 1 0 0 0-1-1l-1-1-10-5a3 3 0 0 0-3 1L22 40c-2 3-3 10-2 15 1 3 3 5 5 5h19l1-2H25l-3-3Zm9-13a2 2 0 0 1 2 3l-4-3a2 2 0 0 1 2 0Zm47 4a34 34 0 0 1-4-10 10 10 0 0 0-3-5l1-4a1 1 0 0 0-1-1l-6-1a1 1 0 0 0-1 0 1 1 0 0 0 0 1l-1 4a9 9 0 0 0-4 4l-2 3c0 2-1 3-3 4l-1 1a1 1 0 0 0 1 2 6 6 0 0 0 3 0 18 18 0 0 1-5 7c-6 6-8 15-5 21a10 10 0 0 0 9 5c5 0 10-4 12-9a44 44 0 0 0 5-22 9 9 0 0 0 4 1 1 1 0 0 0 1 0 1 1 0 0 0 0-1ZM67 67c-3 5-6 8-11 8a8 8 0 0 1-7-4c-3-4-2-13 4-18a21 21 0 0 0 6-9 14 14 0 0 0 4-2l1 6a1 1 0 0 0 0 1h1a1 1 0 0 0 0-1l4-6a21 21 0 0 0 2 3c1 8-1 15-4 22Zm2-27a1 1 0 0 0 0-1h-1a1 1 0 0 0 0 1l-3 4v-4a1 1 0 0 0-1-1 1 1 0 0 0-1 0 11 11 0 0 1-6 3l2-4 2-3a6 6 0 0 1 3-4 1 1 0 0 0 1-1v-3l5 1-1 3a1 1 0 0 0 1 1 8 8 0 0 1 2 5 41 41 0 0 0 3 8l-6-5Z"/>
</svg>
