<svg xmlns="http://www.w3.org/2000/svg" width="802" height="706">
  <path d="M659 59v13c3 16 1 21-7 30-5 6-5 7-2 12 7 10 7 11 7 19 0 7 0 8-2 13-6 8-6 8 2 14 8 8 12 16 9 19h-6c-6 0-10 1-15 5-4 2-4 2-10 1-10-2-14-4-17-10-5-9-7-8-8 4-2 11-4 15-9 20l-3 6c5 20 3 29-8 44l-5 8 4 7c7 11 9 23 4 31-2 5-5 5-9 1-6-5-8-12-8-22 1-8 1-8-8-11-8-3-10-4-15-11l-6-6c-2 0-3 3-3 10s-1 11-6 17l-3 5 3 8c4 11 4 17-3 28l-3 4 4 6c7 11 4 15-7 13-8-1-11-3-20-14-3-4-5-5-7-5h-2l1 14-1 20c-3 10-7 17-13 23l-6 6 6 7c4 5 5 6 6 10 0 6-1 11-6 15l-3 4c0 1 2 4 5 6 8 6 10 10 7 16-2 3-4 4-9 6-4 1-4 3 0 10l3 7c0 2-1 2-4 2l-8 1c-3 1-3 1-7-2-7-7-17-10-28-8-12 2-16 4-34 15-4 3-4 2-3-24a635 635 0 0 0-5-107c-4-7-11-9-25-7h-10l-1-7c0-6 0-6 3-8 5-3 7-7 5-13-2-8-8-19-12-21-3-2-4 0-8 10-6 13-5 19 2 24 4 3 5 4 6 7l-1 6c-1 2-1 3-12 3l-13 2c-4 2-6 6-6 12 3 20 4 116 2 116l-5-4-15-8c-9-5-10-5-18-5-9 0-9 0-10-3-2-4-2-4 1-9 4-6 2-16-4-20-3-3-11-3-15 0h-5l-5-2c-3-1-2-5 0-13 4-10 3-12-5-14-18-4-24-7-30-14l-4-4 2-3 11-14c6-5 10-11 10-11l-4-7-6-8c-2-6-1-17 3-27 4-8 4-9 4-11l-9-9c-9-8-12-13-13-25 0-9-1-12-3-12s-4 2-7 13c-5 15-10 21-19 22l-7 2-2 11c-2 11-4 17-8 21-2 2-2 2-4 1l-1-2-3-5c-3-2-4-4-3-5l8-9c6-7 7-8 7-12 2-11 8-19 20-26 8-5 8-6 12-16 2-7 7-13 16-20 8-7 8-7 4-19-3-9-4-14-2-21 4-10 2-11-7-4-9 6-12 7-20 7h-7l-6 7c-5 6-9 9-14 11-6 3-7 3-18 3-13 1-12 0-15 6-1 3-2 2-7-2-6-5-12-18-11-22 1-5 5-11 10-17 4-3 6-7 6-8l-3-6c-7-9-8-17-3-29l3-12c0-4 0-4-7-11-9-8-11-12-14-21-3-12-5-12-12 3-6 11-12 17-20 22-7 4-8 5-6 14 2 13 0 21-7 29l-4 6 8 9c9 9 12 14 12 19 0 2 0 2-3 2-6 0-6 2-1 10 5 11 5 19-2 29-3 4-2 6 2 12 6 6 9 11 9 15 0 5-2 5-3 2-1-4-4-5-12-4-8 2-17 1-23-2-7-3-10-3-10 0l3 10c6 13 7 20 2 34l-1 6 6 5c10 5 15 13 15 23v4l8 4c8 4 14 9 14 12 0 1-1 1-6-1h-5c-1 0-4 3-6 7-4 7-8 11-19 17l-8 7c0 1 3 3 11 5 11 2 17 6 28 19l3 4 8-1c11-2 20-1 26 2l5 2-1 6c0 4 0 6 2 9v7c-1 5-1 7 1 12s5 8 9 10c4 1 2 8-4 16l-3 7 6 8c8 7 10 12 13 24s5 13 7 6c2-5 9-13 12-13 2 0 1 7-2 13l-3 7 7 8c5 7 6 8 6 12 0 6 2 9 7 14 5 4 7 7 11 17 1 3 4 5 5 4l1-5c2-7 5-12 13-17 8-4 9-6 8-9-2-5-1-11 3-17l3-7-2-5c-2-4-2-5 0-6 3-1 12 12 15 22 2 5 3 7 5 7l8-4c8-5 18-9 19-9l-5 6c-7 8-8 11-8 20 1 7 1 10 4 15 10 22 27 26 49 11 9-5 18-16 29-30l9-11c1 0 1 9-1 21-3 26-9 38-26 55-11 11-13 14-9 15l14-5 14-6c4 0 4 0 5 3 4 9 7 12 11 10 3-2 12-23 17-37l2-6 4 4c3 5 14 14 21 19 9 6 31 17 35 18 6 1 7-1 7-12l-1-9 7-4c11-7 9-10-10-14-11-3-22-7-26-11-8-8-13-16-5-10 11 8 22 13 33 13 17 0 34-10 38-24 2-4 5-6 10-6 2 0 3 0 3 2s-3 12-6 17c-2 5-1 9 5 13 9 6 14 12 17 24 3 7 5 7 9-3 5-10 11-16 20-21 7-4 8-5 6-8-6-8-5-16 3-29l5-10-3-6c-6-12-5-14 6-14 10 0 14 2 21 10l6 6c0 1 4-1 7-4 7-5 11-7 19-8 6 0 12 2 19 8 5 5 8 6 10 4 1-2 8-5 14-6h13c11 2 12 1 3-8a55 55 0 0 1-17-33c0-4-2-9-3-11v-4c2-1 9-1 15 1l8 1 3-6c3-5 8-9 16-11 7-2 8-4 10-10 2-7 4-11 11-17l6-7c-1-1-4-2-10-2-9-1-13-2-17-4h-5c-3 0-4 0-7-4-2-2-4-4-6-4-5-2-6-3-3-8 3-3 3-5 3-11 0-5 1-8 3-13 4-7 9-12 20-18 5-2 9-5 9-6 1-1-1-6-4-12-4-10-4-11-4-18 0-8 1-14 7-24 4-8 4-12 0-11-7 1-8 1-7-1 1-8 8-16 18-20l6-2v-8c-1-9 0-12 7-19l4-6-3-9-2-7 2-8c1-7 1-7-1-9l-2-1c-2 0-1-3 4-8l4-6-3-6c-3-7-3-13 0-22 4-9 4-11-1-15-7-7-11-12-13-16s-2-6-2-16l-1-13-11-3c-11-3-18-7-26-17s-9-11-11-8m7 24c-1 11-2 15-9 22l-3 4 3 4c4 7 6 13 7 18 0 5-2 15-5 18-3 4-3 5 2 9 4 4 8 9 10 15 0 3 1 4 4 4 5 2 8 5 8 9s-1 5-4 8-4 7-2 7 9-5 10-8c3-4 4-21 4-34-1-12-3-20-8-31-3-7-4-11-3-12 2-1 4 2 7 9 8 15 9 19 8 40l-1 22c-1 5 0 7 5 8 5 0 9-1 11-6l6-10 4-5-2-5c-4-7-4-13-1-21 4-10 4-10-3-16-6-5-9-10-11-16l-2-13V92l-5-2c-13-3-18-6-25-13l-4-4-1 10m-565 1c-9 15-12 17-21 22l-5 3 1 7c1 14-1 24-7 31l-4 4 7 8c8 8 11 14 12 21 0 5 1 5 4 7h5l-1-10c-3-14-4-28-3-40 0-13 1-15 2-15 2 0 3 1 2 13-1 17 3 50 7 53 1 1 8 0 9-2l3-6c1-7 5-13 10-19l4-4-4-7c-3-7-3-8-3-16 0-7 0-10 2-17l3-9-7-7c-5-4-8-8-10-13l-4-6-2 2m108 97-12 2h-6l-8 8c-5 5-8 8-14 10-6 3-7 3-17 3l-11 1-2 9c-3 19-9 29-24 33l-5 2-1 12c0 13-1 17-7 23l-4 5 5 5c5 4 9 10 10 15l3 2c3 0 3-1 4-6a93 93 0 0 1 6-20l1-3 16-31c9-14 26-33 33-36 2-1 3-1 3 1l-12 13c-18 18-31 40-39 65-6 17-6 16-1 19l6 2 1-4c1-4 7-10 13-11l5-3 9-10c6-7 7-8 7-12 2-11 9-20 20-27 8-4 8-5 10-11 4-12 8-18 18-25l6-6-3-7-3-13-1-8-6 3m406 2c-3 10-5 13-8 17s-3 5-2 10v15c0 8 0 9-3 15l-7 11-4 6 3 6c7 10 9 23 6 31-2 5-8 14-12 17l-3 5 4 3 6 5c4 4 5 3 7-4l3-6c1-2 1-2 7-1h9c4-1 5-2 6-6 2-8 1-23-4-43-4-11-4-11-1-11 2 0 3 2 5 8 3 12 6 26 6 34l1 7 6-10 5-8h4l11 1h7l2-4c3-7 3-8-2-12-7-4-11-9-12-15-2-7-2-9 0-17l2-7-4-3c-11-8-14-13-15-26v-9l-7-2c-6-2-9-3-14-7h-2m37 1c-4 2-8 6-8 8s1 3 5 3l8 3c5 2 13 4 14 3 2-1 1-4-2-5-4-1-6-3-7-7-1-6-3-7-10-5m17 1c-3 2-2 5 1 6 3 0 6-2 6-4 0-4-5-5-7-2m-586 7v2c2 3 2 16 0 20l-4 7-2 4 5 7c7 7 9 13 8 19-2 9-2 9 4 12l6 6c1 7 3 7 5 1v-13l-1-10 5-3c7-2 12-4 12-6l-13-15c-6-6-7-9-4-9s10 7 16 14l5 7 3-3c3-3 6-12 6-16 0-2-1-3-4-5-5-3-11-9-14-14l-3-5-8 1c-7 1-10 1-20-2l-2 1m627 7-12 1c-9-1-9-1-12 2-6 4-10 5-17 5l-6-1-2 4-4 7c-3 2-2 4 2 7s5 4 3 10c-3 8-3 19 0 20l5-5c5-7 24-25 25-25l2 2-13 14-14 17c-2 3-2 3 0 5l6 5c5 2 5 6 2 11-2 4-1 6 3 5 4 0 6-2 6-4 0-3 5-13 8-17l10-7 6-3-1-6c0-6 0-7 2-12l5-7c5-4 5-6 3-9l-2-11c-1-9-1-10-5-8m-66 3c0 2 1 8 3 11 2 4 5 4 8-1s3-7-1-9-9-2-10-1M45 249l2 6c4 11 4 20-1 35 0 1 0 2 4 4 9 5 15 12 16 22l1 7 6 3c9 4 13 8 15 14 1 3 2 4 5 5 4 1 10 0 13-2l2-2-3-4c-3-4-4-5-4-11s0-6-5-12l-16-17c-8-8-11-11-10-12 2-2 8 3 29 26 6 6 8 6 10 2 2-3-2-10-11-17-4-3-7-7-7-8-1-1 1-3 4-5 2-1 2-2 1-5-1-6-2-8-6-10s-8-6-11-13l-2-5H67c-9 1-16 0-20-1h-2m161 15c-4 10-13 17-21 17-3 0-4 0-5 12-1 10-6 19-12 23l-8 3c-6 0-6 1-5 11s0 15-3 23c-3 5-3 6-1 7 2 2 10 4 15 4l6 1 2 12c1 13 3 21 4 23 2 2 2 2 2-9a185 185 0 0 1 26-94c3 0 2 1-3 13-11 24-16 43-18 77-1 20-1 24 2 19 6-8 9-25 9-46 0-12 0-15 2-15 2-1 4 0 8 7 7 12 7 11 12 4l9-10 6-7-3-5c-5-6-7-11-7-19 0-7 2-16 6-23 2-3 1-6-2-8-7-4-12-11-16-17l-3-7-2 4m343-1c-1 5-3 10-6 13s-3 5 0 11c2 3 2 7 2 12 0 6 0 7-3 13l-4 6 2 4 4 9c0 3 1 4 4 5s3 1 3 7c-2 15-2 22-1 27 3 10 11 19 13 17 3-2 4-11 4-21-1-11 0-12 7-12l6-2c2-1 2-1 0-7-6-12-12-24-17-31-4-7-5-9-3-9 5 0 12 11 24 39l3 4c3 0 10-11 10-15 0-3-5-7-14-12-6-4-6-6-1-12 5-4 5-4-1-8-6-3-10-12-10-23v-8l-6-2-10-5-5-3-1 3m98 26-5 10c-5 10-8 14-15 17-5 3-6 3-13 3l-7-1-1 4c-6 23-15 34-31 37l-4 1v11c-1 9-1 11-3 15s-2 6-1 7c2 3 1 6-5 13-8 8-10 14-10 21 0 6 2 13 4 13a421 421 0 0 1 98-125c3 2 1 4-14 18a341 341 0 0 0-75 102c0 2 2 1 6-2 11-8 21-10 38-9l13 1 2-3c2-14 5-20 13-25 5-4 14-8 18-8s5-1 5-10c1-15 9-26 23-32l8-5-3-9-4-8v-11c0-10 0-12 2-18l3-7c0-1-4-1-15 1-10 1-15 1-24-2l-3 1m-289 2-5 15c0 7 9 11 14 6 3-3 2-5-3-15-3-7-4-8-6-6m-211 14c-3 1-8 6-9 10s2 10 5 11 6-1 5-5c0-4 2-6 7-7s6-2 3-5c-3-4-7-5-11-4m-36 14-5 6c-1 3-1 3 1 8l4 5c2 1 3 1 6-3 4-4 6-5 9-2 2 1 2 1 5-2s4-5 1-8c-5-6-14-8-21-4m396 12-1 9c0 15-5 29-14 38l-4 4 4 4c7 9 8 20 1 28l-2 4 4 4c4 5 6 8 6 13 0 4-3 9-7 12l-4 2 2 8c3 6 3 7 3 12l-2 9c-1 4 1 4 7-2 8-9 12-15 17-29 5-18 7-43 2-63-2-12 0-16 3-5s4 20 4 35c0 13 0 17-2 26-3 12-6 18-11 28l-4 7 11 3h6l1-5c4-11 11-21 20-25 5-2 5-3 2-8-2-3-2-5-2-12s0-9 2-14l8-11 5-6-4-5c-10-9-15-19-14-34v-12l1-3-11-1c-12 0-15-1-22-8l-5-3m-368 2c-4 2-7 5-7 8 1 4 10 15 13 15s7-15 6-22c-1-3-2-3-5-3l-7 2m237 3c-36 1-39 2-41 4-3 3-2 10 0 13h7c8-2 11 0 16 10l4 7c1-1 2-4 2-9 1-12 4-15 12-12 3 2 6 2 9 1 4 0 5 0 7 2l3 6 3 3c3 0 2-14-1-19-4-6-6-7-21-6m-258 5c-9 9-20 11-35 6l-9-2-3 5c-3 6-11 13-17 16l-4 3c0 1 3 3 7 4 9 3 15 7 21 14l6 6 10-1c19-2 29 2 39 17l5 5 6-3c7-3 18-5 24-4l4-1-4-4c-14-11-28-18-44-22-10-1-13-3-13-5s6-1 19 2c11 3 22 8 33 15 7 5 9 6 9 4l-2-14-1-12-4-1c-6 0-14-2-18-4-6-3-14-12-19-20l-5-7-5 3m265 14-1 2 9 6c1 0 1-3-1-6-1-3-4-4-7-2m-13 1-1 8v7l6 3 22 11c2 0 3-1 3-7s-1-6-3-8a774 774 0 0 1-27-14m-169 3-1 16c-1 22-5 33-16 45l-6 7 5 6c13 13 17 28 12 46-4 12-4 11 0 11 5 0 17 3 23 6 10 4 17 13 21 26 1 5 3 5 8 2 4-3 13-7 18-8l5-2-5-3c-17-8-35-26-43-44a163 163 0 0 1-11-65 373 373 0 0 0 11 51c5 14 12 25 22 36 6 7 14 13 15 12l-2-5-1-12 1-22 1-15-4-4-6-8c-2-4-2-6-2-16 1-9 1-13 3-19l2-8-10-3c-15-4-25-11-34-25-4-6-5-7-6-5m140-1c-4 1-5 2-5 5-1 9 18 27 40 38 12 6 22 10 23 9 2 0 1-17 0-18l-8-3-15-8c-6-4-10-5-12-5-4 0-8-4-10-10-1-5-5-9-7-9l-6 1m-4 22v13c1 13 1 14 12 20 17 10 47 21 51 18v-14l-3-2a102 102 0 0 1-51-29c-6-6-8-8-9-6m312 16c-4 1-5 3-3 7l3 4c2 0 7-7 7-10 0-2-1-2-7-1m-13 10c-3 3-5 6-5 10-1 3-1 3 1 3 3 0 10-7 10-10 0-6-2-8-6-3m23-1c-3 2-4 5-1 6 3 2 9 1 10-1 2-1 2-1 0-3l-4-3c-2-1-3 0-5 1m-535 5c0 2 2 6 4 6v-5c-2-2-3-2-4-1m42 3-1 3-5 24a1402 1402 0 0 0-9 25c-2 1-1-6 4-23 6-21 7-27 6-28l-4-1c-2 0-3 1-4 5-1 7-4 11-10 15l-5 5v5c1 7 0 12-4 19l-4 6 4 5c6 4 11 11 13 19l3 7 4-3 8-7 5-3v-11c0-13 2-19 7-26 5-6 5-7 4-12l-4-7-3-4 4-4 4-6-5-2c-6-2-6-2-8-1m172 9c0 12 0 11 13 17 16 8 46 17 48 15l1-9c-1-8 0-7-11-10-15-3-29-9-41-17l-9-6-1 10m305-6-8 6c-3 1-6 3-6 5-2 3-3 15-2 15l6-2c5-2 13-4 22-5 3-1 6 0 4 2l-4 1a488 488 0 0 0-29 10c-5 2-5 3-6 7l-1 8-1 4h6c5 0 6 0 9-3l6-5h20c3 1 3 1 5-4 4-5 8-8 17-11l6-3c2-8 5-13 7-17 4-6 4-7 0-7l-8-2-7-2-7 2c-8 2-14 2-20 0-4-3-5-2-9 1m-501 3c-4 2-5 3-2 6 2 3 5 3 7-2 4-6 2-8-5-4m109 4 2 9c1 2 1 2 6 0 3-1 4-2 4-4 0-4-7-11-10-11-2 0-2 1-2 6m17-4c-2 1-2 3 1 11l9 4c2-1 4-7 4-10-2-6-10-9-14-5m-140 5c-2 2-3 9 0 13l1 3 4-4c4-5 5-6 2-10-3-5-4-5-7-2m462 6c-8 2-10 3-8 7 0 3 2 2 6-1l5-3c2 0 4 2 4 4l2 3c1 1 2 1 4-1l2-6c0-3-1-4-6-4l-9 1m21 1-1 6c-1 3-1 4 1 5l4 2c3 3 7-2 7-9 0-3 0-3-6-4h-5m-352 7c-1 2-1 2 2 5l3 3-1 5c-2 6-3 12-1 12l4-4 8-8c5-3 5-4 3-8-3-5-13-8-18-5m310 3-4 6c0 2 4 1 9-1 4-2 4-2 4-5 0-5-3-5-9 0m20 1-5 4c-5 5-21 9-28 6l-6 1c-4 1-12 9-12 11v1l7 1c10 0 17 3 27 7 10 5 23 15 23 17l-1 2-11-6c-17-11-27-15-41-15h-8l-2 5c-2 8-3 9-11 7l-7-2c-2 0-1 2 2 5 5 6 8 12 10 21 1 4 3 4 10 0 14-7 28-4 37 8l5 4 6-3c6-5 14-7 21-7s12 2 19 8c3 4 4 4 6 3 5-4 10-5 17-6 10 0 10-1 6-6-5-6-7-9-11-24l-4-12h-3c-14 1-19 0-24-2-6-3-11-10-15-20-3-12-3-12-7-8m-250-1c-2 1-1 14 0 15 3 4 25 15 37 18 19 6 19 6 22 3 2-2 2-3 2-9v-7l-4-1a260 260 0 0 1-57-19m-160 8c-8 12-10 23-8 33 1 5 1 5-1 7-2 1-2 2-2 7s-1 8-3 11l-2 5 5 6c7 7 8 9 8 15 0 5 0 5 6 10l7 9c2 5 3 5 6 1l12-12 4-2v-7c0-6 0-8 2-13l3-5-2-8c-1-7-2-7-5-9l-14-2-1 8-3 15c0 8-1 10-4 8v-11l2-15c1-5 1-5-1-7-2-1-3-4 0-9 5-10 5-25 1-35l-4-6-6 6m423-2c-1 2-1 2 1 7 6 10 10 12 12 4 1-8-7-15-13-11m-321 6-9 6c-6 6-11 17-12 25 0 8-1 8 14 11a1019 1019 0 0 1 58 12l10-1c3-2 1-3-7-5-9-2-15-5-16-7s1-2 7-1c9 3 17 5 18 4s0-2-3-5l-16-15c-2-4 2-2 11 5l11 9 2-2c1-1 1-1-1-4-10-10-36-28-46-32-7-3-14-3-21 0m151 11-23 12-19 12c-3 2-3 4 1 4l12-2c10-3 13-4 13-2s-9 6-18 7c-8 2-10 3-8 4l10 1c8 0 9 0 8 1 0 1-2 2-8 2l-9 2c-5 5 16 4 48-1a478 478 0 0 1 29-5c2-1 4-10 4-15 0-10-4-17-12-21-6-3-19-3-28 1m-94 2c0 3 0 3 15 16 3 3 4 3 14 3l14 1c2 1 3 0 5-1s2-2 1-2l-12-5c-12-3-26-10-31-13-4-3-6-3-6 1m141 4c-2 1 0 19 2 19s9-12 9-16c0-3-8-5-11-3m19 16c-4 4-4 5-5 10 0 6-2 12-8 19l-3 5 3 5c5 5 8 14 8 19l-3 11c-4 12-4 13 1 17 7 4 11 10 14 16l3 6 3-5c3-5 11-12 17-16 5-3 6-3 4-9-4-7-1-18 6-28 3-6 4-7 1-11l-2-6-2-4h-10l-2-5c-2-7-3-7-6 5-3 10-5 24-5 38 0 13-1 16-3 13a122 122 0 0 1 7-63l2-9c-1-2-11-12-13-12l-7 4m-139 6c-6 1-8 4-9 9-3 14 0 16 18 16l14-1c2-2 2-2 2-9-1-10-3-14-6-15h-19m125 5-7 3c-2 1-5 7-5 8 1 2 10 1 13 0 2-2 6-10 4-12 0-2-1-1-5 1m-220 3c2 4 13 10 23 12 7 2 33 1 33 0s-2-2-5-2l-26-7c-25-6-27-6-25-3m186 8a308 308 0 0 1-34 5c-4 0-6 2-3 2a1281 1281 0 0 0 37 6c4-2 13-11 13-13h-13m-111 6c-6 3-16 5-30 5-36 0-53 11-49 30 2 7 6 16 11 21 3 3 4 3 5 2l2-4c1-4 9-13 18-20a585 585 0 0 1 48-34c0-2-2-2-5 0m50 2c-2 3-1 5 4 9 17 12 27 18 45 25l15 7c6 4 7 4 11 0 6-7 8-15 3-20s-13-7-43-13c-18-4-20-5-28-8-6-2-6-2-7 0m74 2-5 6c0 1 4 3 7 3 4 0 6-10 4-12-1-1-3 0-6 3m11-2c-1 2 1 3 3 2 1-2 1-4-1-4l-2 2m-1 9c-3 5-3 5 1 9l2 5c0 2 7 1 8-1 3-2 2-4-5-12l-4-5-2 4m-121-2-1 11c0 23-7 46-18 63-6 8-6 10-2 9l8-2h5l3 6 3 7c2 0 11-20 14-31 5-20 5-61 0-63h-12m-26 9c-18 12-28 20-34 27-13 12-13 19 1 14 14-4 26-15 42-39 10-14 10-14-9-2m46-8 1 12 1 23-1 13 4 5c5 7 11 12 23 20 12 9 31 18 32 16v-7c-1-8-1-10 5-13l5-3-12-4c-14-3-21-7-28-14s-10-13-15-27l-5-16c-2-6-2-6-6-6l-4 1m16 7 4 8c7 11 16 20 28 25 6 3 8 3 15 3 8 0 17-1 17-3s-4-4-15-8c-18-7-34-16-44-25-4-2-5-3-5 0" fill-rule="evenodd"/>
</svg>
