<svg xmlns="http://www.w3.org/2000/svg" viewBox="0 0 100 125" stroke-miterlimit="10" fill="none">
  <path d="M88.824 9.436a513.953 513.953 0 0 0-5.928 5.824 8.37 8.37 0 0 0 0 11.86 8.37 8.37 0 0 0 11.86 0 8.37 8.37 0 0 0 0-11.86 514.267 514.267 0 0 0-5.932-5.824zm-25.844 6a514.125 514.125 0 0 0-5.93 5.824 8.37 8.37 0 0 0 0 11.86 8.37 8.37 0 0 0 11.86 0 8.37 8.37 0 0 0 0-11.86 514.093 514.093 0 0 0-5.93-5.824zm25.811 2.986a1.052 1.052 0 0 1 .764.295c.77.742 1.533 1.49 2.289 2.246a4.285 4.285 0 0 1 0 6.037 4.285 4.285 0 0 1-6.037 0 4.285 4.285 0 0 1 0-6.037 176.6 176.6 0 0 1 2.289-2.246 1.052 1.052 0 0 1 .695-.295zm-51.654 3.014a514.125 514.125 0 0 0-5.93 5.824 8.37 8.37 0 0 0 0 11.86 8.37 8.37 0 0 0 11.86 0 8.37 8.37 0 0 0 0-11.86 514.093 514.093 0 0 0-5.93-5.824zm25.808 2.986a1.052 1.052 0 0 1 .766.295c.77.742 1.531 1.49 2.287 2.246a4.285 4.285 0 0 1 0 6.037 4.283 4.283 0 0 1-6.035 0 4.285 4.285 0 0 1 0-6.037c.756-.756 1.518-1.504 2.287-2.246a1.052 1.052 0 0 1 .695-.295zm-51.652 3.014a514.115 514.115 0 0 0-5.93 5.824 8.37 8.37 0 0 0 0 11.86 8.37 8.37 0 0 0 11.86 0 8.37 8.37 0 0 0 0-11.86 514.093 514.093 0 0 0-5.93-5.824zm25.809 2.986a1.052 1.052 0 0 1 .765.295c.77.742 1.532 1.49 2.287 2.246a4.285 4.285 0 0 1 0 6.037 4.285 4.285 0 0 1-6.037 0 4.285 4.285 0 0 1 0-6.037 173.23 173.23 0 0 1 2.29-2.246 1.052 1.052 0 0 1 .695-.295zm47.789.49a8.825 8.825 0 0 0-4.893 7.902v59.707h17.654V38.814a8.825 8.825 0 0 0-4.892-7.902 10.564 10.564 0 0 1-7.87 0zm-73.633 5.51a1.052 1.052 0 0 1 .765.295c.77.742 1.532 1.49 2.288 2.246a4.285 4.285 0 0 1 0 6.037 4.285 4.285 0 0 1-6.038 0 4.285 4.285 0 0 1 0-6.037 173.23 173.23 0 0 1 2.29-2.246 1.052 1.052 0 0 1 .695-.295zm47.789.49a8.827 8.827 0 0 0-4.895 7.902v53.707H71.81V44.814a8.827 8.827 0 0 0-4.895-7.902 10.559 10.559 0 0 1-7.867 0zm-25.846 6a8.825 8.825 0 0 0-4.892 7.902v47.707h17.656V50.814a8.827 8.827 0 0 0-4.895-7.902 10.564 10.564 0 0 1-7.869 0zm-25.844 6a8.825 8.825 0 0 0-4.892 7.902v41.707H20.12V56.814a8.827 8.827 0 0 0-4.894-7.902 10.564 10.564 0 0 1-7.87 0z" fill="#000" fill-rule="evenodd"/>
</svg>
