<svg height="800" width="800" xmlns="http://www.w3.org/2000/svg" viewBox="0 0 64 64" xml:space="preserve">
  <g fill-rule="evenodd" clip-rule="evenodd">
    <path d="M46.514.788c-4.819-1.04-9.575-1.053-13.39-.04-4.05 1.075-6.608 3.191-7.203 5.959-.311 1.445-.046 3.002.767 4.525l-.884 4.104c-3.189.096-6.803.846-10.488 2.29-4.59 1.8-8.56 4.419-11.18 7.374-2.779 3.135-3.74 6.312-2.706 8.947.54 1.377 1.622 2.528 3.141 3.347l9.37 23.894a4.397 4.397 0 0 0 2.352 2.442 4.418 4.418 0 0 0 3.39.063l23.85-9.351a4.295 4.295 0 0 0 2.381-2.292 4.3 4.3 0 0 0 .062-3.303l-1.103-2.812 4.85 1.045a4.34 4.34 0 0 0 3.252-.593 4.348 4.348 0 0 0 1.878-2.716l5.429-25.201c1.369-1.055 2.252-2.366 2.563-3.81C64.04 9.11 56.866 3.017 46.515.788zm-2.433 50.46a2.307 2.307 0 0 1-1.279 1.232l-23.85 9.352a2.419 2.419 0 0 1-1.86-.035 2.412 2.412 0 0 1-1.289-1.34L6.295 36.212a1.004 1.004 0 0 0-.496-.535c-1.263-.612-2.107-1.439-2.508-2.46-.745-1.899.087-4.346 2.341-6.889 2.415-2.724 6.113-5.152 10.414-6.839 3.68-1.442 7.366-2.142 10.497-2.142.741 0 1.452.039 2.123.117 3.141.378 5.35 1.6 6.065 3.424.175.446.263.923.263 1.43 0 .649-.144 1.345-.43 2.082a1 1 0 0 0 0 .728L42.33 44.93l.006.012 1.777 4.533a2.34 2.34 0 0 1-.032 1.773zm16.81-37.01c-.232 1.07-.932 2.024-2.083 2.834a.998.998 0 0 0-.402.607l-5.508 25.57a2.335 2.335 0 0 1-1.01 1.458 2.326 2.326 0 0 1-1.744.318l-6.147-1.324-7.433-18.953c.54-1.586.567-3.118.079-4.461a7.907 7.907 0 0 0-.06-.158c-1.138-2.858-4.409-4.488-8.74-4.762l.88-4.083a1 1 0 0 0-.117-.72c-.715-1.21-.96-2.366-.73-3.437.429-1.994 2.475-3.573 5.76-4.445 3.518-.935 7.94-.912 12.457.061C55.04 4.67 61.817 9.934 60.89 14.238z"/>
    <circle cx="27.206" cy="32.768" r="2"/>
    <circle cx="17.206" cy="42.768" r="2"/>
    <circle cx="31.206" cy="44.768" r="2"/>
    <circle cx="47.206" cy="22.768" r="2"/>
  </g>
</svg>
