<svg xmlns="http://www.w3.org/2000/svg" width="2000" height="424">
  <svg xmlns="http://www.w3.org/2000/svg" xmlns:xlink="http://www.w3.org/1999/xlink" viewBox="0 0 396 84" data-background-color="#ff641d" height="424" width="2000" transform="translate(-1.2 .8)">
    <svg viewBox="0 0 395.5 84.3" height="84.3" width="395.5" transform="translate(.2 -.2)">
      <svg viewBox="0 0 496.4 105.8" height="84.3" width="395.5">
        <svg viewBox="0 0 395.5 76.6" height="76.6" width="395.5" transform="translate(100.8 14.6)">
          <svg viewBox="0 0 395.5 76.6" height="76.6" width="395.5">
            <svg viewBox="0 0 395.5 76.6" height="76.6" width="395.5">
              <svg width="395.5" viewBox="2.8 -38 251 48.6" height="76.6" data-palette-color="#d4d4d4">
                <path d="M2.8 0v-2.3h3.7v-30.3H2.7v-2.3h16.8q4.4 0 6.8 2.3 2.5 2.2 2.5 6 0 1.8-.6 3.3-.5 1.4-1.4 2.4-1 1.1-2.1 1.8-1.2.6-2.4.8v.2q1.3 0 2.6.6 1.5.6 2.6 1.6t1.9 2.6q.8 1.6.8 3.6 0 2.2-.7 4-.7 1.8-2 3-1.1 1.4-2.9 2Q23 0 21 0H2.8Zm8-16.8v14.4h8.6q2.9 0 4.5-1.8 1.7-1.6 1.7-4.4v-2.2q0-2.6-1.7-4.3-1.6-1.7-4.5-1.7h-8.6Zm0-15.7v13.3h7.8q2.7 0 4.1-1.6 1.5-1.6 1.5-4v-2.1q0-2.5-1.4-4-1.5-1.6-4.2-1.6h-7.8ZM43.6.6Q40 .6 38-1.3 36-3 36-6.4q0-1.8.6-3.3.6-1.4 2-2.4Q40-13 42-13.5q2.3-.5 5.4-.5h3.7v-3.8q0-3-1.5-4.7-1.5-1.6-4.4-1.6-1.3 0-2.4.2l-1.8.6v.2q.5.3 1 .9.6.6.6 1.6 0 1.4-.8 2-.7.8-2 .8-1.1 0-2-.7-.7-.8-.7-2.2 0-1.1.6-2.1.7-1 1.9-1.8t3-1.3q1.8-.5 4-.5 4 0 6.3 2.1t2.3 5.9v16.3H59v1.7q-.6.4-1.5.7-1 .3-2.1.3-2 0-3-1.1t-1-3v-.3h-.3l-1 1.6q-.5.9-1.4 1.5l-2.2 1q-1.3.3-3 .3Zm1.8-2.8q2.4 0 4.1-1.2 1.7-1.2 1.7-3.8V-12h-3.3q-2.1 0-3.5.3-1.5.3-2.4 1-.8.6-1.2 1.5-.3.9-.3 2.1v1q0 2 1.3 3t3.6 1ZM62.5 0v-2.3h3.8v-31.8l-3.8-.7v-1.8l7.8-1.4v26.1h.3l4.2-4.7 6.3-6.9h-3.4v-2.3h10.7v2.3h-3.7l-7.2 7.6 9 13.6h2.9V0H78.7v-2.3H82l-7.3-10.9-4.4 4.5v6.4h3.8V0H62.5Zm40.7.6q-2.8 0-5-1-2.1-1-3.6-2.7-1.5-1.7-2.3-4.3-.8-2.4-.8-5.5 0-3 .9-5.5.8-2.5 2.4-4.3 1.5-1.8 3.6-2.7 2-1 4.6-1 2.5 0 4.5.9T111-23q1.4 1.6 2.1 3.9.8 2.3.8 4.9v1.1H96v1.3q0 4.3 2.2 6.8 2 2.4 5.6 2.4 3.1 0 5-1.3 1.8-1.3 2.8-3.3l1.7 1q-.5 1.4-1.4 2.6-.9 1.2-2.1 2.1-1.3 1-3 1.5-1.6.6-3.6.6ZM96-16v.7h13.5v-.5q0-1.8-.4-3.3-.4-1.5-1.2-2.6-.8-1.1-2-1.7-1.2-.7-3-.7-1.6 0-3 .7-1.2.5-2 1.6-1 1.2-1.4 2.6-.5 1.5-.5 3.3Zm34.4 16v-2.3h3.7v-30.3h-3.7v-2.3H147q4.4 0 6.9 2.3 2.4 2.2 2.4 6 0 1.8-.5 3.3-.6 1.4-1.5 2.4-1 1.1-2 1.8-1.3.6-2.5.8v.2q1.3 0 2.7.6 1.4.6 2.5 1.6 1.2 1 2 2.6.7 1.6.7 3.6 0 2.2-.7 4-.7 1.8-1.9 3-1.2 1.4-3 2-1.6.7-3.6.7h-18.2Zm8-16.8v14.4h8.6q3 0 4.6-1.8 1.6-1.6 1.6-4.4v-2.2q0-2.6-1.6-4.3-1.7-1.7-4.6-1.7h-8.6Zm0-15.7v13.3h7.8q2.7 0 4.2-1.6 1.4-1.6 1.4-4v-2.1q0-2.5-1.4-4-1.5-1.6-4.2-1.6h-7.8ZM167 10.6q-2.5 0-3.7-1-1.1-1.2-1.1-2.9 0-1.3.7-2.1t2-.8q1.1 0 1.8.7.6.7.6 1.8 0 .9-.4 1.4-.5.5-1 .6v.2q.6.2 1.3.2 1.3 0 2.6-1.1 1.2-1.1 2.2-3.7l1-2.8-9.4-24.6H161v-2.3h10.7v2.3H168l7 18.9h.1l6.8-18.9h-3.6v-2.3h9v2.3H185L174.2 4.3q-1 2.8-2.8 4.5-1.8 1.8-4.4 1.8ZM197.7.3q-2.7 0-3.7-1-1-1.2-1-3.8v-18.9h-3.3v-2.4h.5l1.7-.1 1-.5.5-.7.3-1 1.2-4.4h2.2v6.7h6.7v2.4H197v21h6.7v1.6l-1.1.5-1.5.3-1.8.2-1.7.1Zm21.5.3q-2.8 0-5-1-2.1-1-3.6-2.7-1.5-1.7-2.3-4.3-.8-2.4-.8-5.5 0-3 .9-5.5.8-2.5 2.4-4.3 1.5-1.8 3.6-2.7 2-1 4.6-1 2.5 0 4.5.9T227-23q1.4 1.6 2.1 3.9.8 2.3.8 4.9v1.1H212v1.3q0 4.3 2.2 6.8 2 2.4 5.6 2.4 3.1 0 5-1.3 1.8-1.3 2.8-3.3l1.7 1q-.5 1.4-1.4 2.6-.9 1.2-2.1 2.1-1.3 1-3 1.5-1.6.6-3.6.6ZM212-16v.7h13.5v-.5q0-1.8-.4-3.3-.4-1.5-1.2-2.6-.8-1.1-2-1.7-1.2-.7-3-.7-1.6 0-3 .7-1.2.5-2 1.6-1 1.2-1.4 2.6-.5 1.5-.5 3.3ZM244.6.7q-2.3 0-4-1-1.8-1-2.4-2.1h-.2V0h-3v-7.8h3v1.1q0 2.2 1.4 3.5 1.3 1.4 4.4 1.4 2.9 0 4.4-1 1.6-1.1 1.6-3.4 0-3.5-4.2-4.4l-3-.7q-3.7-.8-5.6-2.6-1.9-2-1.9-5.2 0-3.4 2.4-5.4 2.3-1.9 6.3-1.9 2.4 0 3.9.8 1.5.7 2 1.9h.2v-2.1h3v7.8h-3v-2q0-4-5.6-4-2.5 0-4 1-1.4 1-1.4 3.1 0 1.8 1.2 3 1.1 1.1 3.1 1.5l2.8.7q3.9.8 5.8 2.6 2 1.8 2 5.1 0 1.7-.7 3-.6 1.4-1.8 2.4-1.2 1-2.9 1.6-1.6.6-3.8.6Z" fill="#fff" class="wordmark-text-0" data-fill-palette-color="primary"/>
              </svg>
            </svg>
          </svg>
        </svg>
        <svg viewBox="0 0 82.8 105.8" height="105.8" width="82.8">
          <svg xmlns="http://www.w3.org/2000/svg" xmlns:xlink="http://www.w3.org/1999/xlink" viewBox="14.6 4.7 70.7 90.5" xml:space="preserve" height="105.8" width="82.8" class="icon-icon-0" data-fill-palette-color="accent">
            <path d="M73.6 29.4a8 8 0 0 0-13.3-6 8 8 0 0 0-10.4 0 8 8 0 0 0-13.4 6 8 8 0 0 0 5 7.4v12.6h27.2V36.8a8 8 0 0 0 5-7.4zm-32.1 24h27.2v4H41.5z" data-fill-palette-color="accent" fill="#fff"/>
            <path d="M23.1 4.7a8.5 8.5 0 0 0-8.5 8.5v62.3c0 4.7 3.8 8.5 8.5 8.5h23.3v11.2l8.4-5 8.5 5V84H81V71.8h4.4v-67H23zm53.2 74.6h-13v-3.4h-17v3.4H23.2a3.8 3.8 0 0 1 0-7.5h53.2v7.5zm4.4-12.2H29.4V9.4h51.3v57.7z" fill="#fff" data-fill-palette-color="accent"/>
          </svg>
        </svg>
      </svg>
    </svg>
  </svg>
</svg>
