<svg xmlns="http://www.w3.org/2000/svg" viewBox="0 0 448.898 448.898" xml:space="preserve">
  <path d="M110.646 307.839a7 7 0 0 1-7 7h-1.866a7 7 0 1 1 0-14h1.866a7 7 0 0 1 7 7zm-42.998-64.394h-1.865a7 7 0 1 0 0 14h1.865a7 7 0 1 0 0-14zm67.651-56.494h-1.867a7 7 0 1 0 0 14h1.867a7 7 0 1 0 0-14zm43.046-91.677h-1.864a7 7 0 1 0 0 14h1.864a7 7 0 1 0 0-14zm86.87 78.218c0-12.365 10.062-22.425 22.428-22.425 12.365 0 22.425 10.06 22.425 22.425 0 12.366-10.06 22.426-22.425 22.426-12.367-.001-22.428-10.061-22.428-22.426zm14 0c0 4.646 3.78 8.426 8.428 8.426 4.646 0 8.425-3.78 8.425-8.426 0-4.646-3.779-8.425-8.425-8.425-4.648-.001-8.428 3.779-8.428 8.425zm-150.794-19.251c0 12.366-10.061 22.426-22.427 22.426s-22.427-10.06-22.427-22.426 10.061-22.426 22.427-22.426 22.427 10.06 22.427 22.426zm-14 0c0-4.646-3.78-8.426-8.427-8.426s-8.427 3.78-8.427 8.426c0 4.646 3.78 8.426 8.427 8.426s8.427-3.78 8.427-8.426zm-39.214 32.71h-1.866a7 7 0 1 0 0 14h1.866a7 7 0 1 0 0-14zm137.754-77.677h1.866a7 7 0 1 0 0-14h-1.866a7 7 0 1 0 0 14zm149.396 191.439a7.002 7.002 0 0 0 9.43-3.012l.855-1.658a7 7 0 0 0-12.442-6.419l-.855 1.658a7.001 7.001 0 0 0 3.012 9.431zm-66.317 79.821a7.001 7.001 0 0 1-2.173 9.32c-.217.161-.444.31-.684.448-29.535 17.014-63.261 26.006-97.531 26.006-35.34 0-68.525-9.421-97.171-25.879a7.084 7.084 0 0 1-1.292-.749C39.101 355.713 0 292.666 0 220.657 0 148.646 39.1 85.6 97.188 51.632a7.226 7.226 0 0 1 1.295-.75c28.646-16.458 61.83-25.878 97.17-25.878s68.524 9.419 97.169 25.877a6.983 6.983 0 0 1 1.294.75c58.089 33.968 97.19 97.015 97.19 169.024v.001a7 7 0 0 1-7 7H225.305l-.146-.001h-17.408l8.311 14.457c.173.229.333.471.48.726l79.498 137.696zm-15.973 1.009-90.483-157.399a7 7 0 0 1 6.069-10.489h152.86c-1.913-41.889-20.932-81.228-52.842-108.812a7 7 0 0 1 9.156-10.592c34.99 30.247 55.777 73.441 57.699 119.403h14.646c-2.348-61.702-35.62-115.614-84.724-146.658l-75.907 131.478a7.001 7.001 0 0 1-12.126-7l61.618-106.729c-21.635-11.212-45.826-17.111-70.383-17.111-18.206 0-36.02 3.165-52.946 9.407a7 7 0 0 1-4.843-13.136c18.482-6.815 37.926-10.271 57.79-10.271 27.013 0 53.624 6.542 77.39 18.975l7.294-12.634c-25.3-13.388-54.122-20.974-84.684-20.974s-59.385 7.586-84.685 20.975l75.919 131.499a7 7 0 0 1-2.563 9.562 7 7 0 0 1-9.563-2.562L113.148 91.756c-36.889 23.611-61.756 61.431-68.621 104.75-.605 3.818-4.194 6.427-8.01 5.818a7 7 0 0 1-5.818-8.009c7.529-47.508 34.883-88.953 75.442-114.695l-7.287-12.622C49.751 98.042 16.48 151.955 14.133 213.657h151.868a7 7 0 1 1 0 14H42.792c1.934 42.515 21.419 82.257 54.131 109.911a7 7 0 0 1-9.039 10.692c-35.866-30.321-57.164-73.956-59.105-120.603H14.133c2.348 61.702 35.618 115.613 84.722 146.657l75.907-131.478a7.001 7.001 0 0 1 12.126 7L125.27 356.564c21.635 11.214 45.828 17.113 70.384 17.113 18.223 0 36.049-3.169 52.983-9.42a7.001 7.001 0 0 1 4.847 13.134c-18.491 6.826-37.948 10.287-57.831 10.287-27.012 0-53.625-6.543-77.391-18.978l-7.294 12.635c25.3 13.388 54.123 20.975 84.685 20.975 29.472-.001 58.508-7.163 84.414-20.767zm65.546-48.418a7.002 7.002 0 0 0 9.432-3.007l.856-1.658a7 7 0 0 0-3.008-9.432 7 7 0 0 0-9.432 3.007l-.856 1.658a7.001 7.001 0 0 0 3.008 9.432zm-25.626-33.763a6.999 6.999 0 0 0 9.432-3.007l.856-1.658a7 7 0 0 0-12.438-6.426l-.856 1.658a7.002 7.002 0 0 0 3.006 9.433zm128.911-46.042c0 35.017-9.362 69.376-27.075 99.365-17.192 29.106-41.761 53.41-71.048 70.282-1.072.618-3.202 1.298-5.315.693-1.786-.511-3.321-1.66-4.247-3.27L247.18 256.809a7 7 0 0 1 6.069-10.489h188.65a7 7 0 0 1 6.999 7zm-14.135 7H265.346l70.162 122.054c35.927-22.916 60.66-59.542 68.285-101.506a6.994 6.994 0 0 1 8.14-5.636 7 7 0 0 1 5.635 8.139c-8.363 46.026-35.573 86.168-75.075 111.152l7.298 12.697c50.694-31.884 82.647-87.125 84.972-146.9zm-213.879 79.299h1.866a7 7 0 1 0 0-14h-1.866a7 7 0 1 0 0 14zm-21.5-3.833c0 12.366-10.061 22.426-22.427 22.426-12.364 0-22.424-10.06-22.424-22.426s10.06-22.426 22.424-22.426c12.366-.001 22.427 10.06 22.427 22.426zm-14 0c0-4.646-3.78-8.426-8.427-8.426-4.645 0-8.424 3.78-8.424 8.426 0 4.646 3.779 8.426 8.424 8.426 4.647-.001 8.427-3.78 8.427-8.426zm1.153-56.373a7 7 0 0 0 7 7h1.865a7 7 0 1 0 0-14h-1.865a7 7 0 0 0-7 7zm8.184-131.878h1.867a7 7 0 1 0 0-14h-1.867a7 7 0 1 0 0 14zM139.072 262.14c0 12.366-10.061 22.426-22.427 22.426-12.365 0-22.425-10.06-22.425-22.426s10.06-22.426 22.425-22.426c12.367 0 22.427 10.06 22.427 22.426zm-14 0c0-4.646-3.78-8.426-8.427-8.426-4.646 0-8.425 3.78-8.425 8.426s3.779 8.426 8.425 8.426c4.647-.001 8.427-3.78 8.427-8.426z"/>
</svg>
